<mxfile host="drawio-plugin" modified="2022-08-09T15:52:50.596Z" agent="5.0 (Macintosh; Intel Mac OS X 10_15_7) AppleWebKit/537.36 (KHTML, like Gecko) Chrome/97.0.4692.45 Safari/537.36" etag="XgQoE3OtadMhbkigkdjP" version="15.5.4" type="embed"><diagram id="GjmHGLFd1saoUC7MZFSF" name="1 oldal"><mxGraphModel dx="544" dy="661" grid="1" gridSize="10" guides="1" tooltips="1" connect="1" arrows="1" fold="1" page="1" pageScale="1" pageWidth="827" pageHeight="1169" math="0" shadow="0"><root><mxCell id="0"/><mxCell id="1" parent="0"/><mxCell id="i44KP_RjTsLC1NCVauAX-1" value="Battleship&#10;" style="swimlane;fontStyle=1;align=center;verticalAlign=top;childLayout=stackLayout;horizontal=1;startSize=26;horizontalStack=0;resizeParent=1;resizeParentMax=0;resizeLast=0;collapsible=1;marginBottom=0;" parent="1" vertex="1"><mxGeometry x="563" width="160" height="60" as="geometry"/></mxCell><mxCell id="i44KP_RjTsLC1NCVauAX-3" value="" style="line;strokeWidth=1;fillColor=none;align=left;verticalAlign=middle;spacingTop=-1;spacingLeft=3;spacingRight=3;rotatable=0;labelPosition=right;points=[];portConstraint=eastwest;" parent="i44KP_RjTsLC1NCVauAX-1" vertex="1"><mxGeometry y="26" width="160" height="8" as="geometry"/></mxCell><mxCell id="i44KP_RjTsLC1NCVauAX-4" value="+ main(): String" style="text;strokeColor=none;fillColor=none;align=left;verticalAlign=top;spacingLeft=4;spacingRight=4;overflow=hidden;rotatable=0;points=[[0,0.5],[1,0.5]];portConstraint=eastwest;" parent="i44KP_RjTsLC1NCVauAX-1" vertex="1"><mxGeometry y="34" width="160" height="26" as="geometry"/></mxCell><mxCell id="i44KP_RjTsLC1NCVauAX-6" value="&#10;Display" style="swimlane;fontStyle=1;align=center;verticalAlign=top;childLayout=stackLayout;horizontal=1;startSize=38;horizontalStack=0;resizeParent=1;resizeParentMax=0;resizeLast=0;collapsible=1;marginBottom=0;" parent="1" vertex="1"><mxGeometry x="230" y="132" width="160" height="150" as="geometry"/></mxCell><mxCell id="i44KP_RjTsLC1NCVauAX-8" value="" style="line;strokeWidth=1;fillColor=none;align=left;verticalAlign=middle;spacingTop=-1;spacingLeft=3;spacingRight=3;rotatable=0;labelPosition=right;points=[];portConstraint=eastwest;" parent="i44KP_RjTsLC1NCVauAX-6" vertex="1"><mxGeometry y="38" width="160" height="8" as="geometry"/></mxCell><mxCell id="i44KP_RjTsLC1NCVauAX-9" value="+ printMenu(): void" style="text;strokeColor=none;fillColor=none;align=left;verticalAlign=top;spacingLeft=4;spacingRight=4;overflow=hidden;rotatable=0;points=[[0,0.5],[1,0.5]];portConstraint=eastwest;" parent="i44KP_RjTsLC1NCVauAX-6" vertex="1"><mxGeometry y="46" width="160" height="26" as="geometry"/></mxCell><mxCell id="i44KP_RjTsLC1NCVauAX-14" value="+ printboard(): void" style="text;strokeColor=none;fillColor=none;align=left;verticalAlign=top;spacingLeft=4;spacingRight=4;overflow=hidden;rotatable=0;points=[[0,0.5],[1,0.5]];portConstraint=eastwest;" parent="i44KP_RjTsLC1NCVauAX-6" vertex="1"><mxGeometry y="72" width="160" height="26" as="geometry"/></mxCell><mxCell id="i44KP_RjTsLC1NCVauAX-15" value="+ printGameplay(): void" style="text;strokeColor=none;fillColor=none;align=left;verticalAlign=top;spacingLeft=4;spacingRight=4;overflow=hidden;rotatable=0;points=[[0,0.5],[1,0.5]];portConstraint=eastwest;" parent="i44KP_RjTsLC1NCVauAX-6" vertex="1"><mxGeometry y="98" width="160" height="26" as="geometry"/></mxCell><mxCell id="i44KP_RjTsLC1NCVauAX-16" value="+ printResults(): void" style="text;strokeColor=none;fillColor=none;align=left;verticalAlign=top;spacingLeft=4;spacingRight=4;overflow=hidden;rotatable=0;points=[[0,0.5],[1,0.5]];portConstraint=eastwest;" parent="i44KP_RjTsLC1NCVauAX-6" vertex="1"><mxGeometry y="124" width="160" height="26" as="geometry"/></mxCell><mxCell id="i44KP_RjTsLC1NCVauAX-10" value="Input" style="swimlane;fontStyle=1;align=center;verticalAlign=top;childLayout=stackLayout;horizontal=1;startSize=26;horizontalStack=0;resizeParent=1;resizeParentMax=0;resizeLast=0;collapsible=1;marginBottom=0;" parent="1" vertex="1"><mxGeometry x="880" y="160" width="186" height="86" as="geometry"/></mxCell><mxCell id="i44KP_RjTsLC1NCVauAX-12" value="" style="line;strokeWidth=1;fillColor=none;align=left;verticalAlign=middle;spacingTop=-1;spacingLeft=3;spacingRight=3;rotatable=0;labelPosition=right;points=[];portConstraint=eastwest;" parent="i44KP_RjTsLC1NCVauAX-10" vertex="1"><mxGeometry y="26" width="186" height="8" as="geometry"/></mxCell><mxCell id="i44KP_RjTsLC1NCVauAX-13" value="+ validateInput(String): boolean" style="text;strokeColor=none;fillColor=none;align=left;verticalAlign=top;spacingLeft=4;spacingRight=4;overflow=hidden;rotatable=0;points=[[0,0.5],[1,0.5]];portConstraint=eastwest;" parent="i44KP_RjTsLC1NCVauAX-10" vertex="1"><mxGeometry y="34" width="186" height="26" as="geometry"/></mxCell><mxCell id="i44KP_RjTsLC1NCVauAX-20" value="+ getInput(): int[]" style="text;strokeColor=none;fillColor=none;align=left;verticalAlign=top;spacingLeft=4;spacingRight=4;overflow=hidden;rotatable=0;points=[[0,0.5],[1,0.5]];portConstraint=eastwest;" parent="i44KP_RjTsLC1NCVauAX-10" vertex="1"><mxGeometry y="60" width="186" height="26" as="geometry"/></mxCell><mxCell id="i44KP_RjTsLC1NCVauAX-21" value="Game" style="swimlane;fontStyle=1;align=center;verticalAlign=top;childLayout=stackLayout;horizontal=1;startSize=26;horizontalStack=0;resizeParent=1;resizeParentMax=0;resizeLast=0;collapsible=1;marginBottom=0;" parent="1" vertex="1"><mxGeometry x="550" y="120" width="186" height="112" as="geometry"/></mxCell><mxCell id="i44KP_RjTsLC1NCVauAX-27" value="- round: int   " style="text;strokeColor=none;fillColor=none;align=left;verticalAlign=top;spacingLeft=4;spacingRight=4;overflow=hidden;rotatable=0;points=[[0,0.5],[1,0.5]];portConstraint=eastwest;" parent="i44KP_RjTsLC1NCVauAX-21" vertex="1"><mxGeometry y="26" width="186" height="26" as="geometry"/></mxCell><mxCell id="i44KP_RjTsLC1NCVauAX-22" value="" style="line;strokeWidth=1;fillColor=none;align=left;verticalAlign=middle;spacingTop=-1;spacingLeft=3;spacingRight=3;rotatable=0;labelPosition=right;points=[];portConstraint=eastwest;" parent="i44KP_RjTsLC1NCVauAX-21" vertex="1"><mxGeometry y="52" width="186" height="8" as="geometry"/></mxCell><mxCell id="i44KP_RjTsLC1NCVauAX-23" value="+ shoot(int[]): void   " style="text;strokeColor=none;fillColor=none;align=left;verticalAlign=top;spacingLeft=4;spacingRight=4;overflow=hidden;rotatable=0;points=[[0,0.5],[1,0.5]];portConstraint=eastwest;" parent="i44KP_RjTsLC1NCVauAX-21" vertex="1"><mxGeometry y="60" width="186" height="26" as="geometry"/></mxCell><mxCell id="i44KP_RjTsLC1NCVauAX-24" value="+ checkWin(): boolean" style="text;strokeColor=none;fillColor=none;align=left;verticalAlign=top;spacingLeft=4;spacingRight=4;overflow=hidden;rotatable=0;points=[[0,0.5],[1,0.5]];portConstraint=eastwest;" parent="i44KP_RjTsLC1NCVauAX-21" vertex="1"><mxGeometry y="86" width="186" height="26" as="geometry"/></mxCell><mxCell id="i44KP_RjTsLC1NCVauAX-28" value="Player" style="swimlane;fontStyle=1;align=center;verticalAlign=top;childLayout=stackLayout;horizontal=1;startSize=26;horizontalStack=0;resizeParent=1;resizeParentMax=0;resizeLast=0;collapsible=1;marginBottom=0;" parent="1" vertex="1"><mxGeometry x="340" y="330" width="186" height="86" as="geometry"/></mxCell><mxCell id="i44KP_RjTsLC1NCVauAX-29" value="- listOfShips: List&lt;Ship&gt;" style="text;strokeColor=none;fillColor=none;align=left;verticalAlign=top;spacingLeft=4;spacingRight=4;overflow=hidden;rotatable=0;points=[[0,0.5],[1,0.5]];portConstraint=eastwest;" parent="i44KP_RjTsLC1NCVauAX-28" vertex="1"><mxGeometry y="26" width="186" height="26" as="geometry"/></mxCell><mxCell id="i44KP_RjTsLC1NCVauAX-30" value="" style="line;strokeWidth=1;fillColor=none;align=left;verticalAlign=middle;spacingTop=-1;spacingLeft=3;spacingRight=3;rotatable=0;labelPosition=right;points=[];portConstraint=eastwest;" parent="i44KP_RjTsLC1NCVauAX-28" vertex="1"><mxGeometry y="52" width="186" height="8" as="geometry"/></mxCell><mxCell id="i44KP_RjTsLC1NCVauAX-33" value="+ isAlive(): boolean" style="text;strokeColor=none;fillColor=none;align=left;verticalAlign=top;spacingLeft=4;spacingRight=4;overflow=hidden;rotatable=0;points=[[0,0.5],[1,0.5]];portConstraint=eastwest;" parent="i44KP_RjTsLC1NCVauAX-28" vertex="1"><mxGeometry y="60" width="186" height="26" as="geometry"/></mxCell><mxCell id="i44KP_RjTsLC1NCVauAX-34" value="BoardFactory" style="swimlane;fontStyle=1;align=center;verticalAlign=top;childLayout=stackLayout;horizontal=1;startSize=26;horizontalStack=0;resizeParent=1;resizeParentMax=0;resizeLast=0;collapsible=1;marginBottom=0;" parent="1" vertex="1"><mxGeometry x="553" y="430" width="170" height="86" as="geometry"/></mxCell><mxCell id="i44KP_RjTsLC1NCVauAX-36" value="" style="line;strokeWidth=1;fillColor=none;align=left;verticalAlign=middle;spacingTop=-1;spacingLeft=3;spacingRight=3;rotatable=0;labelPosition=right;points=[];portConstraint=eastwest;" parent="i44KP_RjTsLC1NCVauAX-34" vertex="1"><mxGeometry y="26" width="170" height="8" as="geometry"/></mxCell><mxCell id="i44KP_RjTsLC1NCVauAX-37" value="+ randomPlacement(): void" style="text;strokeColor=none;fillColor=none;align=left;verticalAlign=top;spacingLeft=4;spacingRight=4;overflow=hidden;rotatable=0;points=[[0,0.5],[1,0.5]];portConstraint=eastwest;" parent="i44KP_RjTsLC1NCVauAX-34" vertex="1"><mxGeometry y="34" width="170" height="26" as="geometry"/></mxCell><mxCell id="i44KP_RjTsLC1NCVauAX-38" value="+ manualPlacement(): void" style="text;strokeColor=none;fillColor=none;align=left;verticalAlign=top;spacingLeft=4;spacingRight=4;overflow=hidden;rotatable=0;points=[[0,0.5],[1,0.5]];portConstraint=eastwest;" parent="i44KP_RjTsLC1NCVauAX-34" vertex="1"><mxGeometry y="60" width="170" height="26" as="geometry"/></mxCell><mxCell id="i44KP_RjTsLC1NCVauAX-39" value="Board" style="swimlane;fontStyle=1;align=center;verticalAlign=top;childLayout=stackLayout;horizontal=1;startSize=26;horizontalStack=0;resizeParent=1;resizeParentMax=0;resizeLast=0;collapsible=1;marginBottom=0;" parent="1" vertex="1"><mxGeometry x="780" y="330" width="190" height="86" as="geometry"/></mxCell><mxCell id="i44KP_RjTsLC1NCVauAX-43" value="+ ocean: Square[][] " style="text;strokeColor=none;fillColor=none;align=left;verticalAlign=top;spacingLeft=4;spacingRight=4;overflow=hidden;rotatable=0;points=[[0,0.5],[1,0.5]];portConstraint=eastwest;" parent="i44KP_RjTsLC1NCVauAX-39" vertex="1"><mxGeometry y="26" width="190" height="26" as="geometry"/></mxCell><mxCell id="i44KP_RjTsLC1NCVauAX-40" value="" style="line;strokeWidth=1;fillColor=none;align=left;verticalAlign=middle;spacingTop=-1;spacingLeft=3;spacingRight=3;rotatable=0;labelPosition=right;points=[];portConstraint=eastwest;" parent="i44KP_RjTsLC1NCVauAX-39" vertex="1"><mxGeometry y="52" width="190" height="8" as="geometry"/></mxCell><mxCell id="i44KP_RjTsLC1NCVauAX-44" value="+ isPlacementOK(int[]): boolean" style="text;strokeColor=none;fillColor=none;align=left;verticalAlign=top;spacingLeft=4;spacingRight=4;overflow=hidden;rotatable=0;points=[[0,0.5],[1,0.5]];portConstraint=eastwest;" parent="i44KP_RjTsLC1NCVauAX-39" vertex="1"><mxGeometry y="60" width="190" height="26" as="geometry"/></mxCell><mxCell id="i44KP_RjTsLC1NCVauAX-45" value="Ship" style="swimlane;fontStyle=1;align=center;verticalAlign=top;childLayout=stackLayout;horizontal=1;startSize=26;horizontalStack=0;resizeParent=1;resizeParentMax=0;resizeLast=0;collapsible=1;marginBottom=0;" parent="1" vertex="1"><mxGeometry x="300" y="530" width="190" height="86" as="geometry"/></mxCell><mxCell id="i44KP_RjTsLC1NCVauAX-95" value="+ placeOfShips: List&lt;Square&gt;  " style="text;strokeColor=none;fillColor=none;align=left;verticalAlign=top;spacingLeft=4;spacingRight=4;overflow=hidden;rotatable=0;points=[[0,0.5],[1,0.5]];portConstraint=eastwest;" parent="i44KP_RjTsLC1NCVauAX-45" vertex="1"><mxGeometry y="26" width="190" height="26" as="geometry"/></mxCell><mxCell id="i44KP_RjTsLC1NCVauAX-47" value="" style="line;strokeWidth=1;fillColor=none;align=left;verticalAlign=middle;spacingTop=-1;spacingLeft=3;spacingRight=3;rotatable=0;labelPosition=right;points=[];portConstraint=eastwest;" parent="i44KP_RjTsLC1NCVauAX-45" vertex="1"><mxGeometry y="52" width="190" height="8" as="geometry"/></mxCell><mxCell id="i44KP_RjTsLC1NCVauAX-96" value="+ isSunk(): boolean" style="text;strokeColor=none;fillColor=none;align=left;verticalAlign=top;spacingLeft=4;spacingRight=4;overflow=hidden;rotatable=0;points=[[0,0.5],[1,0.5]];portConstraint=eastwest;" parent="i44KP_RjTsLC1NCVauAX-45" vertex="1"><mxGeometry y="60" width="190" height="26" as="geometry"/></mxCell><mxCell id="i44KP_RjTsLC1NCVauAX-52" value="&lt;p style=&quot;margin:0px;margin-top:4px;text-align:center;&quot;&gt;&lt;i&gt;&amp;lt;&amp;lt;Enumeration&amp;gt;&amp;gt;&lt;/i&gt;&lt;br&gt;&lt;b&gt;ShipType&lt;/b&gt;&lt;/p&gt;&lt;hr size=&quot;1&quot;&gt;&lt;p style=&quot;margin:0px;margin-left:4px;&quot;&gt;+ typeOfShips: dict(length, name)&lt;/p&gt;&lt;p style=&quot;margin:0px;margin-left:4px;&quot;&gt;&lt;br&gt;&lt;/p&gt;" style="verticalAlign=top;align=left;overflow=fill;fontSize=12;fontFamily=Helvetica;html=1;" parent="1" vertex="1"><mxGeometry x="290" y="690" width="190" height="90" as="geometry"/></mxCell><mxCell id="i44KP_RjTsLC1NCVauAX-53" value="Square" style="swimlane;fontStyle=1;align=center;verticalAlign=top;childLayout=stackLayout;horizontal=1;startSize=26;horizontalStack=0;resizeParent=1;resizeParentMax=0;resizeLast=0;collapsible=1;marginBottom=0;" parent="1" vertex="1"><mxGeometry x="820" y="487" width="160" height="138" as="geometry"/></mxCell><mxCell id="i44KP_RjTsLC1NCVauAX-54" value="+ xCoordinate: Integer&#10;" style="text;strokeColor=none;fillColor=none;align=left;verticalAlign=top;spacingLeft=4;spacingRight=4;overflow=hidden;rotatable=0;points=[[0,0.5],[1,0.5]];portConstraint=eastwest;" parent="i44KP_RjTsLC1NCVauAX-53" vertex="1"><mxGeometry y="26" width="160" height="26" as="geometry"/></mxCell><mxCell id="i44KP_RjTsLC1NCVauAX-57" value="+ yCoordinate: Integer&#10;" style="text;strokeColor=none;fillColor=none;align=left;verticalAlign=top;spacingLeft=4;spacingRight=4;overflow=hidden;rotatable=0;points=[[0,0.5],[1,0.5]];portConstraint=eastwest;" parent="i44KP_RjTsLC1NCVauAX-53" vertex="1"><mxGeometry y="52" width="160" height="26" as="geometry"/></mxCell><mxCell id="i44KP_RjTsLC1NCVauAX-58" value="+ squareStatus: String&#10;" style="text;strokeColor=none;fillColor=none;align=left;verticalAlign=top;spacingLeft=4;spacingRight=4;overflow=hidden;rotatable=0;points=[[0,0.5],[1,0.5]];portConstraint=eastwest;" parent="i44KP_RjTsLC1NCVauAX-53" vertex="1"><mxGeometry y="78" width="160" height="26" as="geometry"/></mxCell><mxCell id="i44KP_RjTsLC1NCVauAX-55" value="" style="line;strokeWidth=1;fillColor=none;align=left;verticalAlign=middle;spacingTop=-1;spacingLeft=3;spacingRight=3;rotatable=0;labelPosition=right;points=[];portConstraint=eastwest;" parent="i44KP_RjTsLC1NCVauAX-53" vertex="1"><mxGeometry y="104" width="160" height="8" as="geometry"/></mxCell><mxCell id="i44KP_RjTsLC1NCVauAX-56" value="+ getSquare(int[]): String" style="text;strokeColor=none;fillColor=none;align=left;verticalAlign=top;spacingLeft=4;spacingRight=4;overflow=hidden;rotatable=0;points=[[0,0.5],[1,0.5]];portConstraint=eastwest;" parent="i44KP_RjTsLC1NCVauAX-53" vertex="1"><mxGeometry y="112" width="160" height="26" as="geometry"/></mxCell><mxCell id="i44KP_RjTsLC1NCVauAX-65" value="&lt;p style=&quot;margin:0px;margin-top:4px;text-align:center;&quot;&gt;&lt;i&gt;&amp;lt;&amp;lt;Enumeration&amp;gt;&amp;gt;&lt;/i&gt;&lt;br&gt;&lt;b&gt;SquareStatus&lt;/b&gt;&lt;/p&gt;&lt;hr size=&quot;1&quot;&gt;&lt;p style=&quot;margin:0px;margin-left:4px;&quot;&gt;statuses: List&amp;lt;String&amp;gt;&lt;/p&gt;&lt;p style=&quot;margin:0px;margin-left:4px;&quot;&gt;+ getCharacter(): String&amp;nbsp;&lt;br&gt;&lt;/p&gt;&lt;p style=&quot;margin:0px;margin-left:4px;&quot;&gt;&lt;br&gt;&lt;/p&gt;" style="verticalAlign=top;align=left;overflow=fill;fontSize=12;fontFamily=Helvetica;html=1;" parent="1" vertex="1"><mxGeometry x="800" y="690" width="190" height="90" as="geometry"/></mxCell><mxCell id="i44KP_RjTsLC1NCVauAX-77" value="" style="endArrow=open;endFill=1;endSize=12;html=1;rounded=0;exitX=0.352;exitY=1.026;exitDx=0;exitDy=0;exitPerimeter=0;entryX=0.375;entryY=0.006;entryDx=0;entryDy=0;entryPerimeter=0;" parent="1" source="i44KP_RjTsLC1NCVauAX-56" target="i44KP_RjTsLC1NCVauAX-65" edge="1"><mxGeometry width="160" relative="1" as="geometry"><mxPoint x="608" y="690" as="sourcePoint"/><mxPoint x="708" y="730" as="targetPoint"/></mxGeometry></mxCell><mxCell id="i44KP_RjTsLC1NCVauAX-78" value="" style="endArrow=open;endFill=1;endSize=12;html=1;rounded=0;exitX=0.379;exitY=1.154;exitDx=0;exitDy=0;exitPerimeter=0;entryX=0.402;entryY=-0.031;entryDx=0;entryDy=0;entryPerimeter=0;" parent="1" source="i44KP_RjTsLC1NCVauAX-96" target="i44KP_RjTsLC1NCVauAX-52" edge="1"><mxGeometry width="160" relative="1" as="geometry"><mxPoint x="452" y="610" as="sourcePoint"/><mxPoint x="452" y="734" as="targetPoint"/></mxGeometry></mxCell><mxCell id="i44KP_RjTsLC1NCVauAX-80" value="" style="endArrow=diamondThin;endFill=1;endSize=24;html=1;rounded=0;exitX=0.47;exitY=0.002;exitDx=0;exitDy=0;exitPerimeter=0;entryX=0.432;entryY=1.071;entryDx=0;entryDy=0;entryPerimeter=0;" parent="1" source="i44KP_RjTsLC1NCVauAX-53" target="i44KP_RjTsLC1NCVauAX-44" edge="1"><mxGeometry width="160" relative="1" as="geometry"><mxPoint x="582" y="450.00000000000006" as="sourcePoint"/><mxPoint x="742" y="450.00000000000006" as="targetPoint"/></mxGeometry></mxCell><mxCell id="i44KP_RjTsLC1NCVauAX-81" value="" style="endArrow=diamondThin;endFill=1;endSize=24;html=1;rounded=0;entryX=0.57;entryY=1.154;entryDx=0;entryDy=0;entryPerimeter=0;exitX=0.568;exitY=0.011;exitDx=0;exitDy=0;exitPerimeter=0;" parent="1" source="i44KP_RjTsLC1NCVauAX-45" target="i44KP_RjTsLC1NCVauAX-33" edge="1"><mxGeometry width="160" relative="1" as="geometry"><mxPoint x="390" y="490" as="sourcePoint"/><mxPoint x="550" y="490" as="targetPoint"/></mxGeometry></mxCell><mxCell id="i44KP_RjTsLC1NCVauAX-83" value="" style="endArrow=diamondThin;endFill=1;endSize=24;html=1;rounded=0;entryX=0.766;entryY=1.16;entryDx=0;entryDy=0;entryPerimeter=0;exitX=0.384;exitY=-0.047;exitDx=0;exitDy=0;exitPerimeter=0;" parent="1" source="i44KP_RjTsLC1NCVauAX-39" target="i44KP_RjTsLC1NCVauAX-24" edge="1"><mxGeometry width="160" relative="1" as="geometry"><mxPoint x="620" y="306" as="sourcePoint"/><mxPoint x="780" y="306" as="targetPoint"/></mxGeometry></mxCell><mxCell id="i44KP_RjTsLC1NCVauAX-84" value="" style="endArrow=diamondThin;endFill=1;endSize=24;html=1;rounded=0;entryX=0.255;entryY=1.096;entryDx=0;entryDy=0;entryPerimeter=0;exitX=0.7;exitY=-0.035;exitDx=0;exitDy=0;exitPerimeter=0;" parent="1" source="i44KP_RjTsLC1NCVauAX-28" target="i44KP_RjTsLC1NCVauAX-24" edge="1"><mxGeometry width="160" relative="1" as="geometry"><mxPoint x="590" y="305.17" as="sourcePoint"/><mxPoint x="750" y="305.17" as="targetPoint"/></mxGeometry></mxCell><mxCell id="i44KP_RjTsLC1NCVauAX-90" value="" style="endArrow=none;endFill=0;endSize=24;html=1;rounded=0;entryX=0.175;entryY=1.077;entryDx=0;entryDy=0;entryPerimeter=0;exitX=0.995;exitY=0.179;exitDx=0;exitDy=0;exitPerimeter=0;" parent="1" source="i44KP_RjTsLC1NCVauAX-9" target="i44KP_RjTsLC1NCVauAX-4" edge="1"><mxGeometry width="160" relative="1" as="geometry"><mxPoint x="390" y="70" as="sourcePoint"/><mxPoint x="560.76" y="73.50199999999995" as="targetPoint"/></mxGeometry></mxCell><mxCell id="i44KP_RjTsLC1NCVauAX-91" value="" style="endArrow=none;endFill=0;endSize=24;html=1;rounded=0;entryX=0.769;entryY=1.115;entryDx=0;entryDy=0;exitX=-0.013;exitY=0.186;exitDx=0;exitDy=0;exitPerimeter=0;entryPerimeter=0;" parent="1" source="i44KP_RjTsLC1NCVauAX-10" target="i44KP_RjTsLC1NCVauAX-4" edge="1"><mxGeometry width="160" relative="1" as="geometry"><mxPoint x="470" y="300" as="sourcePoint"/><mxPoint x="723" y="65" as="targetPoint"/></mxGeometry></mxCell><mxCell id="i44KP_RjTsLC1NCVauAX-92" value="" style="endArrow=none;endFill=0;endSize=24;html=1;rounded=0;exitX=0.461;exitY=0.016;exitDx=0;exitDy=0;exitPerimeter=0;entryX=0.45;entryY=1.115;entryDx=0;entryDy=0;entryPerimeter=0;" parent="1" source="i44KP_RjTsLC1NCVauAX-21" target="i44KP_RjTsLC1NCVauAX-4" edge="1"><mxGeometry width="160" relative="1" as="geometry"><mxPoint x="470" y="300" as="sourcePoint"/><mxPoint x="636" y="70" as="targetPoint"/></mxGeometry></mxCell><mxCell id="i44KP_RjTsLC1NCVauAX-94" value="" style="endArrow=diamondThin;endFill=0;endSize=24;html=1;rounded=0;entryX=1;entryY=0.5;entryDx=0;entryDy=0;exitX=-0.012;exitY=0.231;exitDx=0;exitDy=0;exitPerimeter=0;" parent="1" source="i44KP_RjTsLC1NCVauAX-56" target="i44KP_RjTsLC1NCVauAX-96" edge="1"><mxGeometry width="160" relative="1" as="geometry"><mxPoint x="660" y="400" as="sourcePoint"/><mxPoint x="820" y="400" as="targetPoint"/></mxGeometry></mxCell><mxCell id="i44KP_RjTsLC1NCVauAX-98" value="" style="endArrow=diamondThin;endFill=0;endSize=24;html=1;rounded=0;entryX=0;entryY=0.5;entryDx=0;entryDy=0;exitX=1;exitY=0.5;exitDx=0;exitDy=0;" parent="1" source="i44KP_RjTsLC1NCVauAX-95" target="i44KP_RjTsLC1NCVauAX-37" edge="1"><mxGeometry width="160" relative="1" as="geometry"><mxPoint x="480" y="560" as="sourcePoint"/><mxPoint x="640" y="560" as="targetPoint"/></mxGeometry></mxCell><mxCell id="i44KP_RjTsLC1NCVauAX-102" value="" style="endArrow=none;html=1;rounded=0;entryX=0.478;entryY=1;entryDx=0;entryDy=0;entryPerimeter=0;exitX=0.5;exitY=0;exitDx=0;exitDy=0;" parent="1" source="i44KP_RjTsLC1NCVauAX-34" target="i44KP_RjTsLC1NCVauAX-24" edge="1"><mxGeometry width="50" height="50" relative="1" as="geometry"><mxPoint x="660" y="420" as="sourcePoint"/><mxPoint x="710" y="370" as="targetPoint"/></mxGeometry></mxCell><mxCell id="i44KP_RjTsLC1NCVauAX-103" value="" style="ellipse;html=1;shape=endState;fillColor=#000000;strokeColor=#ff0000;" parent="1" vertex="1"><mxGeometry x="90" y="90" width="30" height="30" as="geometry"/></mxCell><mxCell id="i44KP_RjTsLC1NCVauAX-104" value="" style="ellipse;html=1;shape=endState;fillColor=#000000;strokeColor=#ff0000;" parent="1" vertex="1"><mxGeometry x="90" y="170" width="30" height="30" as="geometry"/></mxCell><mxCell id="i44KP_RjTsLC1NCVauAX-105" value="" style="ellipse;html=1;shape=endState;fillColor=#000000;strokeColor=#ff0000;" parent="1" vertex="1"><mxGeometry x="90" y="132" width="30" height="30" as="geometry"/></mxCell><mxCell id="i44KP_RjTsLC1NCVauAX-106" value="" style="ellipse;html=1;shape=endState;fillColor=#000000;strokeColor=#ff0000;" parent="1" vertex="1"><mxGeometry x="80" y="211" width="30" height="30" as="geometry"/></mxCell><mxCell id="i44KP_RjTsLC1NCVauAX-107" value="" style="endArrow=none;endFill=0;endSize=24;html=1;rounded=0;entryX=1.032;entryY=-0.038;entryDx=0;entryDy=0;entryPerimeter=0;exitX=0;exitY=0.5;exitDx=0;exitDy=0;" parent="1" source="i44KP_RjTsLC1NCVauAX-13" target="i44KP_RjTsLC1NCVauAX-23" edge="1"><mxGeometry width="160" relative="1" as="geometry"><mxPoint x="870" y="200" as="sourcePoint"/><mxPoint x="696.04" y="72.99000000000001" as="targetPoint"/></mxGeometry></mxCell><mxCell id="i44KP_RjTsLC1NCVauAX-108" value="" style="endArrow=none;endFill=0;endSize=24;html=1;rounded=0;entryX=1;entryY=0.5;entryDx=0;entryDy=0;exitX=-0.005;exitY=0.808;exitDx=0;exitDy=0;exitPerimeter=0;" parent="1" source="i44KP_RjTsLC1NCVauAX-27" target="i44KP_RjTsLC1NCVauAX-14" edge="1"><mxGeometry width="160" relative="1" as="geometry"><mxPoint x="890" y="217" as="sourcePoint"/><mxPoint x="751.9520000000002" y="239.01199999999994" as="targetPoint"/></mxGeometry></mxCell><mxCell id="i44KP_RjTsLC1NCVauAX-109" value="" style="endArrow=none;endFill=0;endSize=24;html=1;rounded=0;entryX=0.026;entryY=-0.077;entryDx=0;entryDy=0;exitX=1;exitY=0.5;exitDx=0;exitDy=0;entryPerimeter=0;" parent="1" source="i44KP_RjTsLC1NCVauAX-15" target="i44KP_RjTsLC1NCVauAX-43" edge="1"><mxGeometry width="160" relative="1" as="geometry"><mxPoint x="900" y="227" as="sourcePoint"/><mxPoint x="761.9520000000002" y="249.01199999999994" as="targetPoint"/></mxGeometry></mxCell></root></mxGraphModel></diagram></mxfile>